#!OML:ASF F:\VICON\USERDATA\INSTALL\rory3\rory3.ASF
:FULLY-SPECIFIED
:DEGREES
11
root 0.17444399999999954 18.1889 -22.293299999999913 6.293590000000004 -0.9864589999999984 -4.641379999999998
lfemur -43.3965 5.102429999999985 -14.556399999999993
ltibia 85.50800000000002
lfoot 5.270410000000001 -12.183299999999996
ltoes -16.384799999999995
rfemur 1.710499999999973 5.953560000000001 32.9302
rtibia 34.334900000000005
rfoot -3.664679999999996 -6.58636
rtoes -18.78980000000002
lowerback nan 1.5328999999999988 5.209529999999994
upperback -1.2011700000000007 3.20066 2.454740000000001
thorax -9.42629 1.3378300000000016 -1.0119699999999971
lowerneck -16.988499999999995 -5.062240000000001 -2.9132899999999995
upperneck 9.844739999999998 -6.660150000000002 3.7733800000000013
head 5.96826 -3.0458299999999996 0.9981850000000008
lclavicle 3.210370000000004e-14 7.55381999999999e-15
lhumerus -59.730700000000006 -5.931579999999998 93.2539
lradius 105.54199999999999
lwrist 27.940800000000003
lhand -19.94909999999999 4.5582499999999975
lfingers nan
lthumb 6.388910000000012 34.4419
rclavicle 3.210370000000004e-14 7.55381999999999e-15
rhumerus -34.8724 15.686599999999995 -97.446
rradius 121.994
rwrist -25.734799999999996
rhand -18.3071 nan
rfingers nan
rthumb 7.97396 15.788299999999994
12
root 0.21677999999999997 18.4448 -21.19429999999996 5.519840000000002 0.33290400000000364 -4.03736
lfemur -42.56219999999996 2.9390300000000096 -15.879899999999992
ltibia 76.81759999999998
lfoot 5.368130000000001 -10.749799999999997
ltoes -19.90500000000001
rfemur 6.581879999999968 4.183909999999999 31.56650000000001
rtibia 30.32710000000005
rfoot 7.315359999999999 -3.459740000000003
rtoes -18.091499999999996
lowerback nan 1.6087399999999992 5.705400000000004
upperback -0.14390800000000104 3.1566899999999993 1.8816400000000009
thorax -7.350879999999999 1.3593600000000003 -1.8190899999999997
lowerneck -18.8356 -5.5047799999999985 -2.4230900000000006
upperneck 10.006900000000002 -7.36891 3.983159999999999
head 6.334110000000001 -3.3215200000000014 0.8669299999999994
lclavicle 4.3633199999999985e-14 4.1744800000000026e-14
lhumerus -59.59340000000001 -4.99819 91.4663
lradius 105.99100000000001
lwrist 29.114099999999997
lhand -21.538000000000004 5.610079999999998
lfingers nan
lthumb 4.854899999999994 35.5345
rclavicle 4.3633199999999985e-14 4.1744800000000026e-14
rhumerus -33.78009999999999 16.912400000000005 -96.9438
rradius 123.22299999999998
rwrist -20.076100000000004
rhand -22.596199999999996 nan
rfingers nan
rthumb 3.8329999999999953 13.6118
13
root 0.2666120000000006 18.6436 -20.088599999999957 4.90379 1.585650000000003 -3.552909999999998
lfemur -41.141399999999976 0.9812929999999994 -16.950899999999997
ltibia 67.60550000000002
lfoot 5.819959999999998 -9.95876
ltoes -18.935600000000008
rfemur 10.871900000000041 3.41364 30.579700000000003
rtibia 27.03189999999995
rfoot 17.5505 -3.6630599999999998
rtoes -11.94799999999997
lowerback nan 1.4683400000000009 5.8553099999999985
upperback -0.4365440000000004 2.93265 1.7422200000000005
thorax -7.173359999999999 1.2448499999999996 -1.9819900000000046
lowerneck -17.4845 -5.571519999999999 -2.62614
upperneck 10.225700000000003 -7.4397800000000025 3.9283699999999993
head 6.19252 -3.3862900000000025 0.9024959999999992
lclavicle 1.3020399999999987e-14 1.987849999999988e-15
lhumerus -62.16229999999998 -3.4045200000000055 90.1973
lradius 106.681
lwrist 30.1382
lhand -20.933999999999994 5.465390000000005
lfingers nan
lthumb 5.438059999999996 35.3756
rclavicle 1.3020399999999987e-14 1.987849999999988e-15
rhumerus -35.408 18.66730000000002 -96.6963
rradius 124.20300000000002
rwrist -16.179300000000012
rhand -25.5992 nan
rfingers nan
rthumb 0.9328869999999938 7.661960000000002
14
root 0.2941960000000007 18.8082 -19.017900000000047 4.497730000000001 2.536359999999997 -3.1810800000000006
lfemur -39.394399999999955 -0.6406479999999994 -17.6216
ltibia 57.9208
lfoot 5.192750000000001 -8.424140000000001
ltoes -21.427300000000002
rfemur 13.790299999999972 3.9937299999999984 30.415899999999997
rtibia 26.19639999999994
rfoot 24.184900000000013 -5.035880000000001
rtoes 4.075789999999999
lowerback nan 1.5338799999999986 5.3764899999999995
upperback -1.775049999999999 3.1363800000000026 1.7304099999999993
thorax -9.53478 1.2680400000000003 -1.849150000000003
lowerneck -17.229200000000002 -5.719879999999998 -2.55827
upperneck 11.7107 -7.6660100000000035 3.533880000000003
head 6.616130000000001 -3.5082900000000015 0.7276759999999994
lclavicle -9.193789999999994e-15 -3.5781200000000005e-14
lhumerus -65.59400000000002 -2.8179400000000028 89.2997
lradius 107.34500000000001
lwrist 30.3672
lhand -21.522199999999998 5.6720100000000055
lfingers nan
lthumb 4.870179999999997 35.596
rclavicle -9.193789999999994e-15 -3.5781200000000005e-14
rhumerus -37.97770000000002 18.771099999999983 -95.9863
rradius 125.62400000000002
rwrist -18.918800000000008
rhand -22.9423 nan
rfingers nan
rthumb 3.4988000000000063 11.0549
